PathFileType  4	(X/Y/Z) C:\Users\antoi\Documents\MyRepositories\mobilecap\ResultsAnalysis
DataRate	CameraRate	NumFrames	NumMarkers	Units	OrigDataRate	OrigDataStartFrame	OrigNumFrames
100.0	100.0	4	51	mm	100.0	164	261
Frame#	Time	r_knee			r_shank_antsup			r_ankle			r_calc			r_5meta			r_toe			L_knee			L_shank_antsup			L_ankle			L_calc			L_5meta			L_toe			r_sh2			r_sh3			r_sh4			L_sh2			L_sh3			r_thigh1			r_thigh2			r_thigh3			r_thigh4			r_thigh5			L_thigh1			L_thigh2			L_thigh3			L_thigh4			r.ASIS			r.PSIS			L.ASIS			L.PSIS			C7			R_Shoulder			L_Shoulder			R_Sternum			L_Sternum			R_humerus			R_elbow_med			R_elbow_lat			R_forearm			R_wrist_radius			R_wrist_ulna			L_humerus			L_elbow_med			L_elbow_lat			L_forearm			L_wrist_radius			L_wrist_ulna			R_HJC			L_HJC			R_HJC_reg			L_HJC_reg			
		X1	Y1	Z1	X2	Y2	Z2	X3	Y3	Z3	X4	Y4	Z4	X5	Y5	Z5	X6	Y6	Z6	X7	Y7	Z7	X8	Y8	Z8	X9	Y9	Z9	X10	Y10	Z10	X11	Y11	Z11	X12	Y12	Z12	X13	Y13	Z13	X14	Y14	Z14	X15	Y15	Z15	X16	Y16	Z16	X17	Y17	Z17	X18	Y18	Z18	X19	Y19	Z19	X20	Y20	Z20	X21	Y21	Z21	X22	Y22	Z22	X23	Y23	Z23	X24	Y24	Z24	X25	Y25	Z25	X26	Y26	Z26	X27	Y27	Z27	X28	Y28	Z28	X29	Y29	Z29	X30	Y30	Z30	X31	Y31	Z31	X32	Y32	Z32	X33	Y33	Z33	X34	Y34	Z34	X35	Y35	Z35	X36	Y36	Z36	X37	Y37	Z37	X38	Y38	Z38	X39	Y39	Z39	X40	Y40	Z40	X41	Y41	Z41	X42	Y42	Z42	X43	Y43	Z43	X44	Y44	Z44	X45	Y45	Z45	X46	Y46	Z46	X47	Y47	Z47	X48	Y48	Z48	X49	Y49	Z49	X50	Y50	Z50	X51	Y51	Z51	

164	1.63000000	26.98388	418.14452	-380.25248	29.07283	315.76859	-394.92256	-252.36656	138.69484	-451.96303	-349.00726	104.29670	-510.78195	-178.54315	54.49790	-386.98682	-104.42121	67.61468	-438.91546	57.91431	441.06970	-831.02893	33.45394	370.52567	-846.82303	-212.87552	142.92557	-801.81403	-313.12978	107.49227	-742.69751	-134.54343	54.19883	-840.91019	-65.89886	68.98590	-782.21597	-59.59218	244.60163	-388.08855	-9.88339	368.74089	-358.32341	-108.05700	308.08385	-363.08855	-34.64712	428.90264	-843.57772	-104.37064	328.02220	-835.72212	-219.65724	606.89960	-423.64467	-118.42238	575.05460	-415.52521	-115.68393	516.97936	-377.96194	-252.20594	499.43957	-424.77634	-143.92738	472.94602	-397.70065	-160.38283	624.10577	-815.20620	-26.20123	581.47689	-811.27287	-191.81928	524.70974	-849.49903	-62.75679	478.97874	-848.22204	-260.12527	681.99578	-499.23458	-435.75556	702.70979	-577.80373	-247.17541	687.98225	-741.84615	-435.13534	705.28937	-684.62001	-83.13258	1164.03561	-615.80159	-47.01804	1077.44669	-453.64011	-53.21721	1083.94331	-782.50153	-10.79643	1025.38049	-587.46697	-12.93957	1023.43845	-642.75330	-101.98982	946.02979	-368.33343	-244.51990	779.70702	-369.74885	-221.60207	817.29307	-288.02591	-70.34333	738.65359	-292.22943	16.39609	721.11572	-317.78321	-3.98513	687.63802	-292.89530	-123.63658	994.34640	-871.28946	-272.29673	794.28109	-853.69209	-244.03039	819.66256	-935.73399	-175.78381	778.08872	-941.96590	-33.59092	687.52034	-913.13505	-54.39227	655.06908	-929.41157	-341.66589	568.59109	-524.29906	-334.74078	579.94908	-730.83182	-316.59878	605.29181	-535.30244	-315.66747	609.16373	-695.65389	
165	1.64000000	27.73779	418.95227	-380.17709	29.49139	316.31788	-394.11852	-251.90820	139.24646	-451.93034	-348.73594	105.15558	-510.50981	-178.36368	54.59442	-387.02014	-104.19926	67.71635	-438.83999	60.06956	442.53755	-828.85242	35.65243	372.25112	-844.79927	-211.36098	144.86637	-801.23281	-311.75824	110.39131	-742.54691	-133.93712	55.01911	-840.45509	-65.20184	69.20136	-781.96001	-59.30473	245.26246	-386.83573	-9.55599	369.74760	-358.43633	-108.01734	309.66149	-364.31735	-32.31471	430.76316	-841.21045	-102.26268	330.15340	-834.10860	-219.27025	606.63278	-423.93366	-118.18950	574.90813	-415.67115	-114.99234	517.36111	-377.87190	-251.52965	499.15432	-424.58540	-143.21936	473.19213	-397.31348	-159.30716	623.95515	-814.21987	-25.27279	581.78788	-810.15837	-189.88730	524.40685	-848.46817	-60.50362	479.46713	-846.60901	-258.86602	680.43625	-499.14164	-434.51240	701.68437	-577.95900	-245.72755	686.47533	-741.95571	-433.70434	704.10804	-684.55999	-77.62861	1159.53851	-616.41202	-41.92287	1071.89223	-454.21912	-47.39046	1078.11662	-782.18274	-5.99438	1020.18218	-587.73267	-7.98500	1018.24804	-642.82384	-96.40819	940.57854	-369.11196	-236.93583	772.69326	-369.79743	-214.83820	810.77223	-288.69367	-63.74877	731.27170	-292.45987	22.84927	712.91642	-317.54087	2.24329	679.57749	-292.59149	-116.57707	988.27492	-872.37085	-262.02567	785.55126	-855.99742	-233.80013	811.03028	-937.48052	-165.42555	769.49678	-943.58562	-23.36583	678.57004	-913.81446	-44.14213	646.10215	-930.28922	-340.66817	567.25961	-524.33463	-333.60455	578.61573	-730.86282	-315.69351	604.03799	-535.23920	-314.47679	607.68638	-695.73434	
166	1.65000000	27.95214	419.89659	-379.92974	29.59044	317.04903	-393.18909	-251.73644	139.58003	-451.35436	-348.69976	105.64533	-509.86748	-178.28896	54.52297	-386.76899	-104.06441	67.76222	-438.58907	61.63005	443.66542	-826.94865	37.15388	373.58927	-842.85720	-210.27395	146.20670	-800.59883	-310.83038	112.37605	-742.03999	-133.45997	55.71469	-840.04853	-64.67134	69.37409	-781.70927	-59.52387	246.26376	-385.94991	-9.65191	370.90786	-358.88278	-109.61193	310.41801	-364.20006	-30.53160	432.37024	-838.55986	-100.92974	331.83237	-832.10005	-218.82505	607.21290	-424.33337	-117.88071	575.30054	-415.95520	-114.48856	518.10175	-377.93638	-251.11484	499.75718	-424.45293	-142.69410	473.91503	-397.12157	-158.55677	623.75755	-813.81867	-24.12656	582.30460	-808.71617	-188.62991	524.06206	-847.19456	-59.07040	479.66917	-844.89386	-257.98803	680.10062	-498.82027	-433.28989	701.71619	-578.00204	-244.23319	686.01909	-742.06744	-432.24591	704.19438	-684.46561	-72.68835	1156.42403	-616.86707	-37.38413	1067.81816	-454.85605	-41.83448	1073.80733	-781.96193	-1.63942	1016.38564	-588.04447	-3.53900	1014.41617	-642.81085	-91.41753	936.60509	-369.70112	-229.17849	766.85006	-369.55698	-208.10146	805.34344	-289.02774	-57.21120	724.61745	-292.46747	29.33782	705.72579	-317.13662	8.43467	672.44124	-292.44792	-109.74351	983.39307	-873.22766	-251.71303	777.58561	-857.89404	-223.54716	803.45117	-938.69590	-154.90056	762.24978	-944.70135	-12.90707	671.08405	-913.89073	-33.42048	638.81128	-931.13139	-339.87796	567.10097	-524.24602	-332.48814	578.40591	-730.76567	-314.83929	603.57201	-535.16783	-313.26214	607.31526	-695.96343	
167	1.66000000	27.73665	420.43602	-380.06091	29.39084	317.45617	-392.48371	-251.98915	139.54574	-450.53413	-348.98310	105.52293	-509.04726	-178.28822	54.36138	-386.31285	-104.14353	67.71199	-438.27309	62.56643	444.09893	-825.41995	37.93198	374.35277	-841.28561	-209.68632	146.92061	-800.03472	-310.40803	113.34824	-741.29273	-133.20038	56.23289	-839.68220	-64.37724	69.48485	-781.40885	-60.22603	247.26295	-385.55685	-10.21101	371.77087	-359.32408	-110.86316	311.18376	-363.72361	-29.45961	433.36490	-836.29222	-100.26540	332.80265	-830.31757	-218.27989	608.22773	-424.34766	-117.10520	576.19091	-416.71513	-114.28413	518.71307	-378.14523	-250.94063	500.77963	-424.69700	-142.52690	474.49862	-397.29843	-157.98342	623.61197	-813.73275	-22.73269	582.98679	-806.95271	-187.92613	523.78999	-846.02247	-58.37498	479.67275	-843.54139	-257.26473	681.01949	-498.18891	-432.02086	702.87768	-577.83260	-242.60061	686.55112	-742.00941	-430.75453	705.49281	-684.27368	-68.33139	1154.77891	-617.03289	-33.54953	1065.54050	-455.31590	-36.71501	1071.25432	-781.85951	2.20785	1014.24900	-588.16376	0.45292	1012.17406	-642.63341	-86.89909	934.43448	-369.77874	-221.63021	762.82737	-369.36421	-201.22997	801.24664	-288.95437	-50.44249	719.02133	-292.15322	36.09792	699.70376	-316.55265	14.81500	666.31379	-292.50226	-103.04366	979.80492	-873.45353	-241.05529	770.73362	-859.25410	-213.12160	797.06605	-939.62488	-144.05607	756.33806	-945.22026	-2.08663	665.05246	-913.52070	-22.24967	633.10421	-931.75897	-339.18656	568.16596	-523.86467	-331.32591	579.25992	-730.37828	-313.90853	604.05839	-534.85919	-311.99017	608.01895	-696.05302	
